<?xml version="1.0" encoding="iso-8859-1"?>
<!-- Uploaded to: SVG Repo, www.svgrepo.com, Generator: SVG Repo Mixer Tools -->
<svg version="1.1" id="Layer_1" xmlns="http://www.w3.org/2000/svg" xmlns:xlink="http://www.w3.org/1999/xlink" 
	 viewBox="0 0 512 512" xml:space="preserve">
<path style="fill:#FFDBCC;" d="M138.496,474.104c18.067,0,32.716-14.648,32.716-32.716c0.001-72.158,58.706-130.863,130.863-130.863
	v-65.431c-108.235,0-196.293,88.056-196.294,196.294C105.781,459.456,120.427,474.104,138.496,474.104z"/>
<g>
	<path style="fill:#FFC1A6;" d="M106.326,48.801H89.968c-18.068,0-32.716,14.648-32.716,32.716s14.648,32.716,32.716,32.716h49.073
		V81.517L106.326,48.801z"/>
	<path style="fill:#FFC1A6;" d="M24.537,212.379c0,18.069,14.647,32.716,32.716,32.716l81.789,21.81V157.853l-81.789,21.81
		C39.184,179.663,24.537,194.31,24.537,212.379z"/>
</g>
<g>
	<path style="fill:#FEA680;" d="M40.895,146.948c0,18.069,14.648,32.716,32.716,32.716h65.431v-65.431H73.61
		C55.542,114.232,40.895,128.879,40.895,146.948z"/>
	<path style="fill:#FEA680;" d="M40.349,310.526h98.692v-65.431H40.349c-18.069,0-32.716,14.648-32.716,32.716
		C7.634,295.878,22.28,310.526,40.349,310.526z"/>
</g>
<polygon style="fill:#FFC1A6;" points="345.695,48.801 312.98,48.801 269.359,179.663 312.98,310.526 345.695,310.526 
	389.316,179.663 "/>
<rect x="106.326" y="48.801" style="fill:#FFDBCC;" width="206.654" height="261.725"/>
<polygon style="fill:#ABECEC;" points="345.695,48.801 345.695,310.526 372.958,310.526 405.674,179.663 372.958,48.801 "/>
<rect x="372.958" y="48.801" style="fill:#81E3E2;" width="59.979" height="261.725"/>
<polygon style="fill:#027372;" points="471.105,37.896 438.39,179.663 471.105,321.431 503.821,321.431 503.821,37.896 "/>
<rect x="400.221" y="37.896" style="fill:#02ACAB;" width="70.884" height="283.536"/>
<circle cx="452.021" cy="70.611" r="8.179"/>
<path d="M503.821,29.717h-103.6c-4.518,0-8.179,3.661-8.179,8.179v2.726H89.968c-22.55,0-40.895,18.345-40.895,40.895
	c0,10.387,3.899,19.876,10.302,27.096c-15.552,5.794-26.66,20.79-26.66,38.335c0,10.387,3.899,19.876,10.302,27.096
	c-15.552,5.794-26.66,20.79-26.66,38.335c0,10.387,3.899,19.876,10.302,27.096C11.108,245.269,0,260.265,0,277.81
	c0,22.55,18.345,40.895,40.895,40.895h97.711c-26.551,35.3-41.004,78.242-41.004,122.684c0,22.55,18.345,40.895,40.895,40.895
	s40.895-18.345,40.895-40.895c0.001-67.647,55.036-122.684,122.684-122.684h89.968v2.726c0,4.518,3.661,8.179,8.179,8.179h103.6
	c4.518,0,8.179-3.661,8.179-8.179V37.896C512,33.378,508.339,29.717,503.821,29.717z M163.033,441.389
	c0,13.529-11.008,24.537-24.537,24.537c-13.529,0-24.537-11.008-24.537-24.537c0-46.306,17.059-90.843,48.033-125.403
	c2.155-2.404,2.694-5.847,1.377-8.794c-1.315-2.945-4.241-4.843-7.468-4.843H40.895c-13.529,0-24.537-11.008-24.537-24.537
	s11.008-24.537,24.537-24.537h65.431c4.518,0,8.179-3.661,8.179-8.179s-3.661-8.179-8.179-8.179H57.252
	c-13.529,0-24.537-11.008-24.537-24.537s11.008-24.537,24.537-24.537h49.073c4.518,0,8.179-3.661,8.179-8.179
	s-3.661-8.179-8.179-8.179H73.61c-13.529,0-24.537-11.008-24.537-24.537s11.008-24.537,24.537-24.537h32.716
	c4.518,0,8.179-3.661,8.179-8.179s-3.661-8.179-8.179-8.179H89.968c-13.529,0-24.537-11.008-24.537-24.537
	s11.008-24.537,24.537-24.537h247.548v245.367h-35.442C225.408,302.347,163.034,364.721,163.033,441.389z M495.642,313.252H408.4
	V277.81c0-4.518-3.661-8.179-8.179-8.179s-8.179,3.661-8.179,8.179v24.537h-38.168V56.98h38.168v188.115
	c0,4.518,3.661,8.179,8.179,8.179s8.179-3.661,8.179-8.179V46.075h87.242V313.252z"/>
</svg>